<?xml version="1.0" encoding="iso-8859-1"?>
<!-- Generator: Adobe Illustrator 19.0.0, SVG Export Plug-In . SVG Version: 6.00 Build 0)  -->
<svg version="1.1" id="Capa_1" xmlns="http://www.w3.org/2000/svg" xmlns:xlink="http://www.w3.org/1999/xlink" x="0px" y="0px"
	 viewBox="0 0 381.2 381.2" style="enable-background:new 0 0 381.2 381.2;" xml:space="preserve">
<g>
	<g>
		<path d="M324.56,75.293L324.56,75.293c-34.36-25.32-81.76-41-133.96-41s-99.6,15.68-133.96,41c-35,25.8-56.64,61.6-56.64,101.28
			c0.06,17.945,4.466,35.609,12.84,51.48c8.177,15.422,19.151,29.189,32.36,40.6l-32.88,68.28c-1.686,3.43-0.273,7.577,3.156,9.263
			c2.15,1.057,4.693,0.927,6.724-0.343l73.92-45.64c14.084,5.968,28.731,10.511,43.72,13.56c16.705,3.401,33.712,5.103,50.76,5.08
			c52.2,0,99.6-15.68,133.96-41c35-25.8,56.64-61.6,56.64-101.28S359.56,101.093,324.56,75.293z M316.36,266.573
			c-32,23.64-76.56,38.28-125.76,38.28c-16.121,0.023-32.203-1.585-48-4.8c-15.129-3.066-29.881-7.76-44-14
			c-2.174-0.976-4.698-0.765-6.68,0.56l-56.84,34.96L60,269.813c1.422-2.994,0.535-6.576-2.12-8.56
			c-13.464-10.855-24.605-24.309-32.76-39.56c-7.334-13.912-11.191-29.393-11.24-45.12c0-35.04,19.48-66.92,50.92-90.08
			c32-23.64,76.56-38.28,125.76-38.28s93.72,14.64,125.8,38.36c31.48,23.2,50.92,55.04,50.92,90.08
			C367.28,211.693,347.84,243.493,316.36,266.573z"/>
	</g>
</g>
<g>
	<g>
		<circle cx="221.12" cy="140.813" r="7.08"/>
	</g>
</g>
<g>
	<g>
		<circle cx="160.04" cy="140.813" r="7.08"/>
	</g>
</g>
<g>
	<g>
		<path d="M254.6,111.613c-16.96-16.995-39.99-26.538-64-26.52c-50.037-0.026-90.621,40.515-90.648,90.552
			c-0.026,50.037,40.515,90.621,90.552,90.648s90.621-40.515,90.648-90.552C281.165,151.688,271.612,128.617,254.6,111.613z
			 M244.8,229.853v0.04c-29.935,29.956-78.486,29.973-108.442,0.038s-29.973-78.486-0.038-108.442s78.486-29.973,108.442-0.038
			c14.392,14.382,22.479,33.895,22.478,54.242C267.26,196.012,259.185,215.502,244.8,229.853z"/>
	</g>
</g>
<g>
	<g>
		<path d="M190.6,160.133c-30.751,0-55.68,24.929-55.68,55.68c0.108,3.766,3.193,6.762,6.96,6.76h97.4c3.844,0,6.96-3.116,6.96-6.96
			C246.13,184.956,221.258,160.155,190.6,160.133z M190.6,208.853h-41.2c3.831-22.743,25.373-38.075,48.116-34.244
			c17.544,2.955,31.289,16.7,34.244,34.244H190.6z"/>
	</g>
</g>
<g>
</g>
<g>
</g>
<g>
</g>
<g>
</g>
<g>
</g>
<g>
</g>
<g>
</g>
<g>
</g>
<g>
</g>
<g>
</g>
<g>
</g>
<g>
</g>
<g>
</g>
<g>
</g>
<g>
</g>
</svg>
