<?xml version="1.0" encoding="iso-8859-1"?>
<!-- Generator: Adobe Illustrator 19.0.0, SVG Export Plug-In . SVG Version: 6.00 Build 0)  -->
<svg version="1.1" id="Capa_1" xmlns="http://www.w3.org/2000/svg" xmlns:xlink="http://www.w3.org/1999/xlink" x="0px" y="0px"
	 viewBox="0 0 381.2 381.2" style="enable-background:new 0 0 381.2 381.2;" xml:space="preserve">
<g>
	<g>
		<path d="M94.32,133.655c-5.134-5.133-12.1-8.012-19.36-8h-47.6c-7.26-0.012-14.226,2.867-19.36,8
			c-5.129,5.137-8.007,12.101-8,19.36v168.4c0.022,15.146,12.294,27.418,27.44,27.44l-0.08-0.04h47.56
			c7.259,0.007,14.224-2.871,19.36-8l0.4-0.44c4.904-5.093,7.643-11.889,7.64-18.96v-168.4
			C102.332,145.755,99.453,138.789,94.32,133.655z M88.44,321.215c0.027,3.478-1.292,6.832-3.68,9.36l-0.28,0.28
			c-2.517,2.544-5.942,3.983-9.52,4h-47.6c-7.458-0.022-13.498-6.062-13.52-13.52v-168.52c0.017-3.578,1.456-7.003,4-9.52
			c2.529-2.55,5.969-3.989,9.56-4h47.52c7.467,0,13.52,6.053,13.52,13.52V321.215z"/>
	</g>
</g>
<g>
	<g>
		<path d="M273.52,125.575L273.52,125.575l-21.76,0v-46.32c-0.006-25.913-21.017-46.916-46.93-46.91
			c-25.905,0.005-46.904,21.005-46.91,46.91v46.32H145c-5.648,0.014-11.059,2.274-15.04,6.28c-3.992,3.988-6.236,9.398-6.24,15.04
			v180.6c-0.017,5.65,2.213,11.076,6.2,15.08c3.988,3.992,9.398,6.236,15.04,6.24h128.56c59.397-0.176,107.504-48.283,107.68-107.68
			v-8C380.958,173.785,332.87,125.75,273.52,125.575z M367.28,241.175c-0.154,51.718-42.042,93.606-93.76,93.76H145
			c-1.964,0.004-3.849-0.773-5.24-2.16c-1.387-1.391-2.164-3.276-2.16-5.24v-180.64c-0.004-1.964,0.773-3.849,2.16-5.24
			c1.391-1.387,3.276-2.164,5.24-2.16h20c3.844,0,6.96-3.116,6.96-6.96v-53.28c0-18.225,14.775-33,33-33s33,14.775,33,33v53.28
			c0,3.844,3.116,6.96,6.96,6.96h28.72c51.718,0.154,93.606,42.042,93.76,93.76L367.28,241.175z"/>
	</g>
</g>
<g>
</g>
<g>
</g>
<g>
</g>
<g>
</g>
<g>
</g>
<g>
</g>
<g>
</g>
<g>
</g>
<g>
</g>
<g>
</g>
<g>
</g>
<g>
</g>
<g>
</g>
<g>
</g>
<g>
</g>
</svg>
