<?xml version="1.0" encoding="iso-8859-1"?>
<!-- Generator: Adobe Illustrator 19.0.0, SVG Export Plug-In . SVG Version: 6.00 Build 0)  -->
<svg version="1.1" id="Capa_1" xmlns="http://www.w3.org/2000/svg" xmlns:xlink="http://www.w3.org/1999/xlink" x="0px" y="0px"
	 viewBox="0 0 381.28 381.28" style="enable-background:new 0 0 381.28 381.28;" xml:space="preserve">
<g>
	<g>
		<path d="M374.321,309.769c-0.04,0-0.081,0-0.121,0.001h-15.64v-149.6c5.893-11.086,8.983-23.445,9-36c0-27.44-14.92-52-39-69.88
			c-26.73-18.721-58.69-28.521-91.32-28c-32.63-0.521-64.59,9.279-91.32,28c-21.92,16-36.24,38.04-38.64,62.56H41.52
			c-10.506,0.066-18.982,8.614-18.96,19.12v173.8H6.96c-3.844,0-6.96,3.116-6.96,6.96c0.044,21.123,17.157,38.236,38.28,38.28H343
			c21.123-0.044,38.236-17.157,38.28-38.28C381.281,312.886,378.165,309.769,374.321,309.769z M154.16,65.57l0.04,0.2
			c24.354-16.968,53.443-25.815,83.12-25.28c29.677-0.535,58.766,8.312,83.12,25.28c20.56,15.16,33.28,36,33.28,58.68
			s-12.72,43.52-33.28,58.68c-24.354,16.968-53.443,25.815-83.12,25.28c-10.679,0.021-21.334-1.037-31.8-3.16
			c-10.042-2.04-19.833-5.165-29.2-9.32c-2.174-0.976-4.698-0.765-6.68,0.56l-31.36,19.36l13.36-27.76
			c1.444-3.004,0.555-6.611-2.12-8.6c-8.761-7.087-16.01-15.861-21.32-25.8c-4.75-9.017-7.248-19.049-7.28-29.24
			C120.88,101.49,133.6,80.73,154.16,65.57z M344.72,179.97v129.8h-17.2V194.93l1.12-0.8c5.794-4.248,11.165-9.043,16.04-14.32
			L344.72,179.97z M116.72,161.45c5.247,9.48,12.049,18.012,20.12,25.24l-21.36,44.28c-1.686,3.43-0.273,7.577,3.156,9.263
			c2.15,1.057,4.693,0.927,6.724-0.343l48.68-30.04c9.204,3.848,18.754,6.808,28.52,8.84c11.373,2.323,22.952,3.489,34.56,3.48
			c26.576,0.237,52.796-6.112,76.32-18.48v106.08H67.52V164.49c-0.009-0.852,0.322-1.673,0.92-2.28
			c0.601-0.613,1.422-0.959,2.28-0.96h45.88L116.72,161.45z M36.72,136.13c-0.16-2.822,1.98-5.247,4.8-5.44h65.76
			c0.462,5.666,1.562,11.261,3.28,16.68h-40c-4.508,0.03-8.822,1.842-12,5.04c-3.198,3.178-5.01,7.492-5.04,12v145.36H36.44
			L36.72,136.13z M360.12,333.89c-4.553,4.579-10.743,7.155-17.2,7.16H38.2c-10.751-0.05-20.211-7.108-23.32-17.4h351.36
			C365.077,327.516,362.975,331.034,360.12,333.89L360.12,333.89z"/>
	</g>
</g>
<g>
	<g>
		<path d="M296.42,104.053c-0.883-0.824-1.965-1.404-3.14-1.683l-32.76-7.68l-17.24-28.64c-1.904-3.314-6.134-4.456-9.448-2.552
			c-1.062,0.61-1.942,1.491-2.552,2.552l-17.2,28.64l-32.64,7.56c-3.725,0.854-6.052,4.567-5.198,8.292
			c0.254,1.105,0.775,2.132,1.518,2.988l21.96,25.44l-2.92,33.44c-0.367,3.804,2.42,7.185,6.224,7.552
			c1.21,0.117,2.43-0.088,3.536-0.592l30.88-13.08l30.28,12.84c3.395,1.802,7.609,0.511,9.411-2.884
			c0.625-1.177,0.899-2.508,0.789-3.836L275,138.97l21.76-25.08C299.383,111.08,299.23,106.675,296.42,104.053z M262.56,132.13
			c-1.229,1.41-1.835,3.256-1.68,5.12l2.16,24.84l-22.96-9.72c-1.714-0.72-3.646-0.72-5.36,0l-22.96,9.72l2.16-24.84
			c0.182-2.065-0.566-4.103-2.04-5.56l-16-18.44l24.2-5.56c1.944-0.437,3.606-1.69,4.56-3.44l12.72-21.12l12.84,21.36
			c0.968,1.623,2.558,2.779,4.4,3.2l24.28,5.6L262.56,132.13z"/>
	</g>
</g>
<g>
</g>
<g>
</g>
<g>
</g>
<g>
</g>
<g>
</g>
<g>
</g>
<g>
</g>
<g>
</g>
<g>
</g>
<g>
</g>
<g>
</g>
<g>
</g>
<g>
</g>
<g>
</g>
<g>
</g>
</svg>
