<?xml version="1.0" encoding="iso-8859-1"?>
<!-- Generator: Adobe Illustrator 19.0.0, SVG Export Plug-In . SVG Version: 6.00 Build 0)  -->
<svg version="1.1" id="Capa_1" xmlns="http://www.w3.org/2000/svg" xmlns:xlink="http://www.w3.org/1999/xlink" x="0px" y="0px"
	 viewBox="0 0 381.2 381.2" style="enable-background:new 0 0 381.2 381.2;" xml:space="preserve">
<g>
	<g>
		<path d="M324.56,75.293L324.56,75.293c-34.36-25.32-81.76-41-133.96-41s-99.6,15.68-133.96,41c-35,25.8-56.64,61.6-56.64,101.28
			c0.06,17.945,4.466,35.609,12.84,51.48c8.177,15.422,19.15,29.19,32.36,40.6l-32.88,68.28c-1.686,3.43-0.273,7.577,3.156,9.263
			c2.15,1.057,4.693,0.927,6.724-0.343l73.92-45.64c14.084,5.968,28.731,10.511,43.72,13.56c16.705,3.401,33.712,5.103,50.76,5.08
			c52.2,0,99.6-15.68,133.96-41c35-25.8,56.64-61.6,56.64-101.28S359.56,101.093,324.56,75.293z M316.36,266.573
			c-32,23.64-76.56,38.28-125.76,38.28c-16.121,0.023-32.203-1.585-48-4.8c-15.129-3.066-29.881-7.76-44-14
			c-2.174-0.976-4.698-0.765-6.68,0.56l-56.84,34.96L60,269.813c1.422-2.994,0.535-6.576-2.12-8.56
			c-13.464-10.855-24.605-24.309-32.76-39.56c-7.334-13.912-11.191-29.393-11.24-45.12c0-35.04,19.48-66.92,50.92-90.08
			c32-23.64,76.56-38.28,125.76-38.28s93.72,14.64,125.8,38.36c31.48,23.2,50.92,55.04,50.92,90.08
			C367.28,211.693,347.84,243.493,316.36,266.573z"/>
	</g>
</g>
<g>
	<g>
		<path d="M268.92,203.133l-29.28-29.28l29.28-29.28c6.083-6.026,9.498-14.238,9.48-22.8c0.006-8.572-3.406-16.792-9.48-22.84
			c-12.618-12.625-33.082-12.631-45.707-0.013c-0.004,0.004-0.008,0.008-0.013,0.013l-29.28,29.24l-29.28-29.28
			c-12.598-12.614-33.037-12.627-45.651-0.029c-0.01,0.01-0.019,0.019-0.029,0.029c-12.625,12.618-12.631,33.082-0.013,45.707
			c0.004,0.004,0.008,0.008,0.013,0.013l29.28,29.28l-29.28,29.28c-12.614,12.598-12.627,33.037-0.029,45.651
			c0.01,0.01,0.019,0.019,0.029,0.029c12.618,12.625,33.082,12.631,45.707,0.013c0.004-0.004,0.008-0.008,0.013-0.013l29.28-29.28
			l29.28,29.28c12.598,12.614,33.037,12.627,45.651,0.029c0.01-0.01,0.019-0.019,0.029-0.029
			c12.625-12.618,12.631-33.082,0.013-45.707C268.928,203.142,268.924,203.137,268.92,203.133z M259.099,239.035
			c-0.006,0.006-0.012,0.012-0.018,0.018c-7.197,7.176-18.843,7.176-26.04,0l-34.2-34.2c-2.718-2.716-7.122-2.716-9.84,0l-34.2,34.2
			c-7.181,7.191-18.831,7.199-26.022,0.018c-0.006-0.006-0.012-0.012-0.018-0.018c-7.176-7.197-7.176-18.843,0-26.04l34.2-34.2
			c2.716-2.718,2.716-7.122,0-9.84l-34.2-34.2c-7.191-7.181-7.199-18.831-0.018-26.022c0.006-0.006,0.012-0.012,0.018-0.018
			c7.197-7.176,18.843-7.176,26.04,0l34.2,34.2c2.718,2.716,7.122,2.716,9.84,0l34.2-34.2c7.181-7.191,18.831-7.199,26.021-0.018
			c0.006,0.006,0.012,0.012,0.018,0.018c7.176,7.197,7.176,18.843,0,26.04l0.04,0.04l-34.24,34.16c-2.716,2.718-2.716,7.122,0,9.84
			l34.2,34.2C266.271,220.194,266.279,231.844,259.099,239.035z"/>
	</g>
</g>
<g>
</g>
<g>
</g>
<g>
</g>
<g>
</g>
<g>
</g>
<g>
</g>
<g>
</g>
<g>
</g>
<g>
</g>
<g>
</g>
<g>
</g>
<g>
</g>
<g>
</g>
<g>
</g>
<g>
</g>
</svg>
