<?xml version="1.0" encoding="iso-8859-1"?>
<!-- Generator: Adobe Illustrator 19.0.0, SVG Export Plug-In . SVG Version: 6.00 Build 0)  -->
<svg version="1.1" id="Capa_1" xmlns="http://www.w3.org/2000/svg" xmlns:xlink="http://www.w3.org/1999/xlink" x="0px" y="0px"
	 viewBox="0 0 381.2 381.2" style="enable-background:new 0 0 381.2 381.2;" xml:space="preserve">
<g>
	<g>
		<path d="M324.56,75.293L324.56,75.293c-34.36-25.32-81.76-41-133.96-41s-99.6,15.68-133.96,41c-35,25.8-56.64,61.6-56.64,101.28
			c0.06,17.945,4.466,35.609,12.84,51.48c8.177,15.422,19.15,29.19,32.36,40.6l-32.88,68.28c-1.686,3.43-0.273,7.577,3.156,9.263
			c2.15,1.057,4.693,0.927,6.724-0.343l73.92-45.64c14.084,5.969,28.73,10.511,43.72,13.56c16.705,3.401,33.712,5.103,50.76,5.08
			c52.2,0,99.6-15.68,133.96-41c35-25.8,56.64-61.6,56.64-101.28S359.56,101.093,324.56,75.293z M316.36,266.573
			c-32,23.64-76.56,38.28-125.76,38.28c-16.121,0.023-32.203-1.585-48-4.8c-15.129-3.066-29.881-7.76-44-14
			c-2.174-0.976-4.698-0.765-6.68,0.56l-56.84,34.96L60,269.813c1.422-2.994,0.535-6.576-2.12-8.56
			c-13.464-10.855-24.605-24.309-32.76-39.56c-7.334-13.912-11.191-29.393-11.24-45.12c0-35.04,19.48-66.92,50.92-90.08
			c32-23.64,76.56-38.28,125.76-38.28s93.72,14.64,125.8,38.36c31.48,23.2,50.92,55.04,50.92,90.08
			C367.28,211.693,347.84,243.493,316.36,266.573z"/>
	</g>
</g>
<g>
	<g>
		<path d="M284.363,147.134c-0.896-0.847-2.002-1.441-3.203-1.721v0.04l-55.36-12.8l-29.2-48.6
			c-1.904-3.314-6.134-4.456-9.448-2.552c-1.062,0.61-1.942,1.491-2.552,2.552l-29.24,48.56l-55.36,12.8
			c-3.725,0.854-6.052,4.567-5.198,8.292c0.253,1.105,0.775,2.132,1.518,2.988l37.24,42.88l-4.92,56.68
			c-0.349,3.806,2.453,7.174,6.259,7.523c1.14,0.105,2.288-0.075,3.341-0.523l52.36-22.2l51.76,21.92
			c3.395,1.802,7.609,0.511,9.411-2.884c0.625-1.177,0.899-2.508,0.789-3.836l-4.92-56.64l37-42.64
			C287.281,154.18,287.157,149.775,284.363,147.134z M235.2,192.773c-1.229,1.41-1.835,3.256-1.68,5.12l4,48l-44.4-18.8
			c-1.726-0.731-3.674-0.731-5.4,0l-44.4,18.8l4-48c0.182-2.065-0.566-4.103-2.04-5.56l-31.28-36l46.96-10.88
			c1.944-0.437,3.606-1.69,4.56-3.44l25.08-41.04l24.84,41.32c0.968,1.623,2.558,2.779,4.4,3.2l46.96,10.88L235.2,192.773z"/>
	</g>
</g>
<g>
</g>
<g>
</g>
<g>
</g>
<g>
</g>
<g>
</g>
<g>
</g>
<g>
</g>
<g>
</g>
<g>
</g>
<g>
</g>
<g>
</g>
<g>
</g>
<g>
</g>
<g>
</g>
<g>
</g>
</svg>
