<?xml version="1.0" encoding="iso-8859-1"?>
<!-- Generator: Adobe Illustrator 19.0.0, SVG Export Plug-In . SVG Version: 6.00 Build 0)  -->
<svg version="1.1" id="Capa_1" xmlns="http://www.w3.org/2000/svg" xmlns:xlink="http://www.w3.org/1999/xlink" x="0px" y="0px"
	 viewBox="0 0 381.2 381.2" style="enable-background:new 0 0 381.2 381.2;" xml:space="preserve">
<g>
	<g>
		<path d="M324.56,75.293L324.56,75.293c-34.36-25.32-81.76-41-133.96-41s-99.6,15.68-133.96,41c-35,25.8-56.64,61.6-56.64,101.28
			c0.06,17.945,4.466,35.609,12.84,51.48c8.177,15.422,19.15,29.19,32.36,40.6l-32.88,68.28c-1.686,3.43-0.273,7.577,3.156,9.263
			c2.15,1.057,4.693,0.927,6.724-0.343l73.92-45.64c14.084,5.968,28.731,10.511,43.72,13.56c16.705,3.401,33.712,5.103,50.76,5.08
			c52.2,0,99.6-15.68,133.96-41c35-25.8,56.64-61.6,56.64-101.28S359.56,101.093,324.56,75.293z M316.36,266.573
			c-32,23.64-76.56,38.28-125.76,38.28c-16.121,0.023-32.203-1.585-48-4.8c-15.129-3.066-29.881-7.76-44-14
			c-2.174-0.976-4.698-0.765-6.68,0.56l-56.84,34.96L60,269.813c1.422-2.994,0.535-6.576-2.12-8.56
			c-13.464-10.855-24.605-24.309-32.76-39.56c-7.334-13.912-11.191-29.393-11.24-45.12c0-35.04,19.48-66.92,50.92-90.08
			c32-23.64,76.56-38.28,125.76-38.28s93.72,14.64,125.8,38.36c31.48,23.2,50.92,55.04,50.92,90.08
			C367.28,211.693,347.84,243.493,316.36,266.573z"/>
	</g>
</g>
<g>
	<g>
		<path d="M288.84,107.213h-0.04l-0.52-0.64c-11.736-11.681-30.705-11.681-42.44,0l-77.6,77.6l-39.56-39.56
			c-11.731-11.719-30.74-11.711-42.46,0.02c-11.72,11.731-11.711,30.741,0.02,42.46l60.8,60.76c11.726,11.703,30.714,11.703,42.44,0
			l98.72-98.72l0.64-0.68C299.847,136.91,299.847,118.757,288.84,107.213z M281.96,133.933l-0.04,0.04
			c-0.754,1.947-1.882,3.727-3.32,5.24l-98.8,98.8c-1.484,1.505-3.251,2.702-5.2,3.52c-3.976,1.614-8.424,1.614-12.4,0
			c-1.949-0.818-3.716-2.015-5.2-3.52l-60.92-60.76c-1.505-1.484-2.702-3.251-3.52-5.2c-1.614-3.976-1.614-8.424,0-12.4
			c1.668-3.903,4.777-7.012,8.68-8.68c3.976-1.614,8.424-1.614,12.4,0c1.949,0.818,3.716,2.015,5.2,3.52l44.48,44.44
			c2.718,2.716,7.122,2.716,9.84,0l82.52-82.48c1.484-1.505,3.251-2.702,5.2-3.52c3.976-1.614,8.424-1.614,12.4,0
			c1.809,0.758,3.463,1.843,4.88,3.2l0.6,0.6C283.144,121.324,284.4,128.073,281.96,133.933z"/>
	</g>
</g>
<g>
</g>
<g>
</g>
<g>
</g>
<g>
</g>
<g>
</g>
<g>
</g>
<g>
</g>
<g>
</g>
<g>
</g>
<g>
</g>
<g>
</g>
<g>
</g>
<g>
</g>
<g>
</g>
<g>
</g>
</svg>
