<?xml version="1.0" encoding="iso-8859-1"?>
<!-- Generator: Adobe Illustrator 19.0.0, SVG Export Plug-In . SVG Version: 6.00 Build 0)  -->
<svg version="1.1" id="Capa_1" xmlns="http://www.w3.org/2000/svg" xmlns:xlink="http://www.w3.org/1999/xlink" x="0px" y="0px"
	 viewBox="0 0 381.246 381.246" style="enable-background:new 0 0 381.246 381.246;" xml:space="preserve">
<g>
	<g>
		<path d="M381.04,355.497l-8.92-55.72l-9-57.92v-0.28c-0.226-0.658-0.549-1.278-0.96-1.84L222.6,39.897
			c-17.12-24.204-50.569-30.047-74.88-13.08l-8,5.52c-24.26,17.042-30.21,50.474-13.32,74.84l139.4,198.96l0.28,0.36l0.2,0.2h0.92
			l51.36,28.28l27.68,15.24H6.96c-3.844,0-6.96,3.116-6.96,6.96s3.116,6.96,6.96,6.96h367.32c3.844,0.003,6.963-3.11,6.966-6.954
			C381.246,356.614,381.177,356.048,381.04,355.497z M131.28,69.337c1.775-10.499,7.664-19.856,16.36-26l8-5.52
			c15.919-10.833,37.281-8.871,50.96,4.68l-72.24,50.68C130.913,85.734,129.838,77.411,131.28,69.337z M141.8,104.897l73.4-51.4
			l131.4,187.68l-36.68,25.68l-36.68,25.68L141.8,104.897z M326.24,324.417l-41.6-22.92l33.24-23.28l33.24-23.28l7.48,46.96l6.84,44
			L326.24,324.417z"/>
	</g>
</g>
<g>
	<g>
		<path d="M238.2,317.417H6.96c-3.844,0-6.96,3.116-6.96,6.96s3.116,6.96,6.96,6.96H238.2c3.844,0,6.96-3.116,6.96-6.96
			S242.044,317.417,238.2,317.417z"/>
	</g>
</g>
<g>
	<g>
		<path d="M212.32,283.097H6.96c-3.844,0-6.96,3.116-6.96,6.96s3.116,6.96,6.96,6.96h205.36c3.844,0,6.96-3.116,6.96-6.96
			S216.164,283.097,212.32,283.097z"/>
	</g>
</g>
<g>
</g>
<g>
</g>
<g>
</g>
<g>
</g>
<g>
</g>
<g>
</g>
<g>
</g>
<g>
</g>
<g>
</g>
<g>
</g>
<g>
</g>
<g>
</g>
<g>
</g>
<g>
</g>
<g>
</g>
</svg>
