<?xml version="1.0" encoding="iso-8859-1"?>
<!-- Generator: Adobe Illustrator 19.0.0, SVG Export Plug-In . SVG Version: 6.00 Build 0)  -->
<svg version="1.1" id="Capa_1" xmlns="http://www.w3.org/2000/svg" xmlns:xlink="http://www.w3.org/1999/xlink" x="0px" y="0px"
	 viewBox="0 0 381.2 381.2" style="enable-background:new 0 0 381.2 381.2;" xml:space="preserve">
<g>
	<g>
		<path d="M373.2,40.405h-0.08c-5.134-5.133-12.1-8.012-19.36-8h-47.52c-7.26-0.012-14.226,2.867-19.36,8
			c-5.129,5.137-8.007,12.101-8,19.36v168.4c0.022,15.146,12.294,27.418,27.44,27.44h47.48c7.259,0.007,14.223-2.871,19.36-8
			l0.4-0.44c4.904-5.093,7.643-11.889,7.64-18.96V59.765C381.212,52.505,378.333,45.539,373.2,40.405z M367.28,228.205
			c0.006,3.45-1.311,6.772-3.68,9.28l-0.28,0.28c-2.517,2.544-5.942,3.983-9.52,4h-47.56c-7.458-0.022-13.498-6.062-13.52-13.52
			V59.765c0.017-3.578,1.456-7.003,4-9.52c2.529-2.55,5.969-3.989,9.56-4h47.52c7.467,0,13.52,6.053,13.52,13.52L367.28,228.205z"/>
	</g>
</g>
<g>
	<g>
		<path d="M251.24,38.605c-3.988-3.992-9.398-6.236-15.04-6.24H107.64C48.274,32.563,0.198,80.639,0,140.005v8
			c0.219,59.35,48.29,107.403,107.64,107.6h21.76v46.32c0.006,25.913,21.017,46.916,46.93,46.91
			c25.905-0.005,46.904-21.005,46.91-46.91v-46.32h12.92c5.648-0.014,11.059-2.274,15.04-6.28c3.992-3.988,6.236-9.398,6.24-15.04
			v-180.6C257.457,48.035,255.227,42.609,251.24,38.605z M243.56,234.285c0.004,1.964-0.773,3.849-2.16,5.24
			c-1.391,1.387-3.276,2.164-5.24,2.16h-20c-3.844,0-6.96,3.116-6.96,6.96v53.28c0,18.225-14.775,33-33,33s-33-14.775-33-33v-53.28
			c0-3.844-3.116-6.96-6.96-6.96h-28.6c-51.703-0.154-93.584-42.017-93.76-93.72v-7.96c0.154-51.718,42.042-93.606,93.76-93.76
			h128.52c1.964-0.004,3.849,0.773,5.24,2.16c1.387,1.391,2.164,3.276,2.16,5.24V234.285z"/>
	</g>
</g>
<g>
</g>
<g>
</g>
<g>
</g>
<g>
</g>
<g>
</g>
<g>
</g>
<g>
</g>
<g>
</g>
<g>
</g>
<g>
</g>
<g>
</g>
<g>
</g>
<g>
</g>
<g>
</g>
<g>
</g>
</svg>
